<?xml version="1.0" encoding="UTF-8" standalone="no"?>
<!-- Created with Inkscape (http://www.inkscape.org/) -->

<svg
   xmlns:dc="http://purl.org/dc/elements/1.1/"
   xmlns:cc="http://creativecommons.org/ns#"
   xmlns:rdf="http://www.w3.org/1999/02/22-rdf-syntax-ns#"
   xmlns:svg="http://www.w3.org/2000/svg"
   xmlns="http://www.w3.org/2000/svg"
   xmlns:sodipodi="http://sodipodi.sourceforge.net/DTD/sodipodi-0.dtd"
   xmlns:inkscape="http://www.inkscape.org/namespaces/inkscape"
   width="429.92374"
   height="178.7917"
   viewBox="0 0 113.75065 47.305304"
   version="1.1"
   id="svg8020"
   inkscape:version="0.92.0 r15299"
   sodipodi:docname="uni financial ccop.svg">
  <defs
     id="defs8014">
    <clipPath
       clipPathUnits="userSpaceOnUse"
       id="clipPath18">
      <path
         d="M 0,132 H 321 V 0 H 0 Z"
         id="path16"
         inkscape:connector-curvature="0" />
    </clipPath>
  </defs>
  <sodipodi:namedview
     id="base"
     pagecolor="#ffffff"
     bordercolor="#666666"
     borderopacity="1.0"
     inkscape:pageopacity="0.0"
     inkscape:pageshadow="2"
     inkscape:zoom="1.8741658"
     inkscape:cx="213.96187"
     inkscape:cy="88.395852"
     inkscape:document-units="mm"
     inkscape:current-layer="layer1"
     showgrid="false"
     fit-margin-top="0"
     fit-margin-left="0"
     fit-margin-right="0"
     fit-margin-bottom="0"
     units="px"
     inkscape:window-width="1280"
     inkscape:window-height="744"
     inkscape:window-x="-4"
     inkscape:window-y="-4"
     inkscape:window-maximized="1" />
  <metadata
     id="metadata8017">
    <rdf:RDF>
      <cc:Work
         rdf:about="">
        <dc:format>image/svg+xml</dc:format>
        <dc:type
           rdf:resource="http://purl.org/dc/dcmitype/StillImage" />
        <dc:title></dc:title>
      </cc:Work>
    </rdf:RDF>
  </metadata>
  <g
     inkscape:label="Layer 1"
     inkscape:groupmode="layer"
     id="layer1"
     transform="translate(163.95598,-224.79957)">
    <g
       id="g8352"
       transform="translate(0.26458415,-0.26457772)">
      <path
         inkscape:connector-curvature="0"
         id="path22"
         style="fill:#000000;fill-opacity:1;fill-rule:nonzero;stroke:none;stroke-width:0.35277778"
         d="m -103.0972,263.0702 c -6.84601,0 -12.23327,-2.24472 -12.23327,-9.9882 v -18.68699 h 6.73417 v 17.62019 c 0,3.42301 2.24473,5.16255 5.55554,5.16255 1.90747,0 3.872093,-0.56056 5.667379,-1.23401 0,0 -0.112183,-0.78493 -0.112183,-1.17863 v -20.3701 h 6.733822 v 21.94137 c 0,1.3469 0.392289,3.92783 0.392289,3.92783 -3.927475,1.40335 -8.5852,2.80599 -12.737747,2.80599" />
      <path
         inkscape:connector-curvature="0"
         id="path26"
         style="fill:#000000;fill-opacity:1;fill-rule:nonzero;stroke:none;stroke-width:0.35277778"
         d="m -68.68863,262.45266 v -17.62019 c 0,-3.4223 -2.244372,-5.16255 -5.555192,-5.16255 -1.907469,0 -3.872088,0.56127 -5.667374,1.23472 0,0 0.112536,0.78564 0.112536,1.17828 v 20.36974 h -6.734175 v -21.94031 c 0,-1.34726 -0.392995,-3.92888 -0.392995,-3.92888 3.928534,-1.40265 8.586259,-2.806 12.738806,-2.806 6.846005,0 12.232922,2.24508 12.232922,9.9889 v 18.68629 z" />
      <path
         d="m -57.69477,234.3954 h 6.733117 v 28.05818 h -6.733117 z"
         style="fill:#000000;fill-opacity:1;fill-rule:nonzero;stroke:none;stroke-width:0.35277778"
         id="path28"
         inkscape:connector-curvature="0" />
      <path
         inkscape:connector-curvature="0"
         id="path32"
         style="fill:#00adc4;fill-opacity:1;fill-rule:nonzero;stroke:none;stroke-width:0.35277778"
         d="m -149.1607,268.04334 v -9.26924 l 7.72724,-5.69418 7.76288,5.69418 v 9.26924 l -7.75829,-5.67443 z" />
      <path
         inkscape:connector-curvature="0"
         id="path36"
         style="fill:#0078a0;fill-opacity:1;fill-rule:nonzero;stroke:none;stroke-width:0.35277778"
         d="m -123.67836,260.84915 -8.81556,-2.86173 -3.00179,-9.11119 7.78581,-5.62222 8.81697,2.86385 -7.77663,5.62539 z" />
      <path
         inkscape:connector-curvature="0"
         id="path40"
         style="fill:#7bc043;fill-opacity:1;fill-rule:nonzero;stroke:none;stroke-width:0.35277778"
         d="m -159.15856,260.86326 8.84237,-2.87867 2.96404,-9.10307 -7.7918,-5.61552 -8.81203,2.87126 7.7985,5.61093 z" />
      <path
         inkscape:connector-curvature="0"
         id="path44"
         style="fill:#00895e;fill-opacity:1;fill-rule:nonzero;stroke:none;stroke-width:0.35277778"
         d="m -122.72477,234.39547 -5.41937,7.56073 h -9.59909 l -2.96791,-9.10801 5.41972,-7.51946 2.94534,9.06674 z" />
      <path
         inkscape:connector-curvature="0"
         id="path48"
         style="fill:#00a84f;fill-opacity:1;fill-rule:nonzero;stroke:none;stroke-width:0.35277778"
         d="m -160.14179,234.387 5.41902,7.56955 h 9.59732 l 2.96757,-9.10801 -5.41867,-7.51946 -2.90301,9.05792 z" />
      <path
         inkscape:connector-curvature="0"
         id="path52"
         style="fill:#000000;fill-opacity:1;fill-rule:nonzero;stroke:none;stroke-width:0.35277778"
         d="m -112.7788,268.92289 h -1.48519 v 0.91087 h 1.24142 v 0.56304 h -1.24142 v 1.64817 h -0.67769 v -3.70734 h 2.16288 z" />
      <path
         d="m -111.54347,272.0449 h -0.67734 v -3.70734 h 0.67734 z"
         style="fill:#000000;fill-opacity:1;fill-rule:nonzero;stroke:none;stroke-width:0.35277778"
         id="path54"
         inkscape:connector-curvature="0" />
      <path
         inkscape:connector-curvature="0"
         id="path58"
         style="fill:#000000;fill-opacity:1;fill-rule:nonzero;stroke:none;stroke-width:0.35277778"
         d="m -107.42924,272.00211 c -0.13723,0.054 -0.27093,0.0808 -0.40146,0.0808 -0.32844,0 -0.5835,-0.15734 -0.76412,-0.47131 l -1.37654,-2.37914 c -0.0296,-0.0511 -0.0522,-0.0963 -0.0705,-0.13582 h -0.0106 v 2.94852 h -0.67733 v -3.70734 h 1.01353 l 1.5173,2.74814 0.0815,0.16263 h 0.0109 v -2.91077 h 0.67733 z" />
      <path
         inkscape:connector-curvature="0"
         id="path62"
         style="fill:#000000;fill-opacity:1;fill-rule:nonzero;stroke:none;stroke-width:0.35277778"
         d="m -104.6866,270.5166 -0.48789,-1.25166 -0.4819,1.25166 z m 1.35043,1.52894 h -0.75953 l -0.36865,-0.94368 h -1.43087 l -0.3683,0.93839 -0.72707,0.005 1.53423,-3.70805 h 0.64523 z" />
      <path
         inkscape:connector-curvature="0"
         id="path66"
         style="fill:#000000;fill-opacity:1;fill-rule:nonzero;stroke:none;stroke-width:0.35277778"
         d="m -99.596478,272.00211 c -0.137231,0.054 -0.271639,0.0808 -0.401461,0.0808 -0.329141,0 -0.583851,-0.15734 -0.764821,-0.47131 l -1.37583,-2.37914 c -0.0296,-0.0511 -0.0529,-0.0963 -0.0706,-0.13582 h -0.0113 v 2.94852 h -0.67663 v -3.70734 h 1.01283 l 1.51659,2.74814 c 0.0198,0.0356 0.0466,0.0903 0.0822,0.16263 h 0.0102 v -2.91077 h 0.678742 z" />
      <path
         inkscape:connector-curvature="0"
         id="path70"
         style="fill:#000000;fill-opacity:1;fill-rule:nonzero;stroke:none;stroke-width:0.35277778"
         d="m -96.079037,271.85535 c -0.332669,0.16263 -0.662517,0.24412 -0.992011,0.24412 -0.560564,0 -1.016353,-0.17709 -1.368425,-0.53093 -0.352072,-0.35419 -0.528108,-0.81209 -0.528108,-1.37195 0,-0.55633 0.162277,-1.01424 0.489655,-1.37372 0.327378,-0.35983 0.766939,-0.53904 1.320095,-0.53904 0.339372,0 0.695677,0.0832 1.067152,0.24941 l -0.221544,0.55245 c -0.322086,-0.14076 -0.606778,-0.21166 -0.856192,-0.21166 -0.340078,0 -0.607836,0.12911 -0.801864,0.38558 -0.181327,0.23072 -0.271639,0.52247 -0.271639,0.87242 0,0.41205 0.104775,0.74083 0.314678,0.98601 0.223661,0.26 0.538339,0.39053 0.942975,0.39053 0.245181,0 0.490009,-0.0579 0.731661,-0.17357 z" />
      <path
         d="m -94.800288,272.0449 h -0.677334 v -3.70734 h 0.677334 z"
         style="fill:#000000;fill-opacity:1;fill-rule:nonzero;stroke:none;stroke-width:0.35277778"
         id="path72"
         inkscape:connector-curvature="0" />
      <path
         inkscape:connector-curvature="0"
         id="path76"
         style="fill:#000000;fill-opacity:1;fill-rule:nonzero;stroke:none;stroke-width:0.35277778"
         d="m -92.035851,270.5166 -0.487186,-1.25166 -0.483306,1.25166 z m 1.350433,1.52894 h -0.75953 l -0.3683,-0.94368 h -1.431572 l -0.367948,0.93839 -0.726369,0.005 1.533525,-3.70805 h 0.64523 z" />
      <path
         inkscape:connector-curvature="0"
         id="path80"
         style="fill:#000000;fill-opacity:1;fill-rule:nonzero;stroke:none;stroke-width:0.35277778"
         d="m -88.036092,272.04518 h -2.211211 v -3.70734 h 0.677333 v 3.12208 h 1.533878 z" />
      <path
         inkscape:connector-curvature="0"
         id="path84"
         style="fill:#000000;fill-opacity:1;fill-rule:nonzero;stroke:none;stroke-width:0.35277778"
         d="m -83.499088,271.85535 c -0.332669,0.16263 -0.662869,0.24412 -0.992011,0.24412 -0.560564,0 -1.016353,-0.17709 -1.368425,-0.53093 -0.352072,-0.35419 -0.528108,-0.81209 -0.528108,-1.37195 0,-0.55633 0.162277,-1.01424 0.489655,-1.37372 0.327378,-0.35983 0.766939,-0.53904 1.320095,-0.53904 0.339372,0 0.695677,0.0832 1.067152,0.24941 l -0.221544,0.55245 c -0.322086,-0.14076 -0.607131,-0.21166 -0.856192,-0.21166 -0.34043,0 -0.607836,0.12911 -0.801864,0.38558 -0.18168,0.23072 -0.271639,0.52247 -0.271639,0.87242 0,0.41205 0.104775,0.74083 0.314678,0.98601 0.223661,0.26 0.538339,0.39053 0.942975,0.39053 0.245181,0 0.489656,-0.0579 0.731661,-0.17357 z" />
      <path
         inkscape:connector-curvature="0"
         id="path88"
         style="fill:#000000;fill-opacity:1;fill-rule:nonzero;stroke:none;stroke-width:0.35277778"
         d="m -80.409354,270.1967 c 0,-0.37183 -0.07796,-0.67733 -0.233186,-0.91616 -0.180975,-0.27799 -0.446264,-0.41734 -0.797278,-0.41734 -0.349603,0 -0.615597,0.13935 -0.796572,0.41734 -0.151695,0.23883 -0.227189,0.54433 -0.227189,0.91616 0,0.36512 0.07726,0.66675 0.232481,0.90523 0.184502,0.27834 0.447675,0.41769 0.79128,0.41769 0.347486,0 0.611011,-0.13935 0.791633,-0.41769 0.159456,-0.23848 0.238831,-0.54011 0.238831,-0.90523 m 0.726369,0 c 0,0.55668 -0.151694,1.00894 -0.455436,1.35502 -0.318205,0.3683 -0.752122,0.55315 -1.301397,0.55315 -0.549275,0 -0.980722,-0.18203 -1.295047,-0.54715 -0.303389,-0.35066 -0.455083,-0.80434 -0.455083,-1.36102 0,-0.56374 0.147814,-1.01882 0.443441,-1.36631 0.318559,-0.36795 0.754945,-0.55174 1.306689,-0.55174 0.557389,0 0.994833,0.18379 1.311981,0.55174 0.296333,0.34749 0.444852,0.80257 0.444852,1.36631" />
      <path
         inkscape:connector-curvature="0"
         id="path92"
         style="fill:#000000;fill-opacity:1;fill-rule:nonzero;stroke:none;stroke-width:0.35277778"
         d="m -76.436477,270.1967 c 0,-0.37183 -0.07796,-0.67733 -0.233186,-0.91616 -0.180622,-0.27799 -0.446264,-0.41734 -0.796925,-0.41734 -0.349603,0 -0.61595,0.13935 -0.796572,0.41734 -0.152048,0.23883 -0.227189,0.54433 -0.227189,0.91616 0,0.36512 0.07726,0.66675 0.23248,0.90523 0.18415,0.27834 0.447675,0.41769 0.791281,0.41769 0.347133,0 0.610658,-0.13935 0.791633,-0.41769 0.159103,-0.23848 0.238478,-0.54011 0.238478,-0.90523 m 0.726722,0 c 0,0.55668 -0.152047,1.00894 -0.455789,1.35502 -0.317852,0.3683 -0.752122,0.55315 -1.301044,0.55315 -0.549275,0 -0.980722,-0.18203 -1.2954,-0.54715 -0.303036,-0.35066 -0.455083,-0.80434 -0.455083,-1.36102 0,-0.56374 0.147814,-1.01882 0.443441,-1.36631 0.318911,-0.36795 0.754945,-0.55174 1.307042,-0.55174 0.557036,0 0.993775,0.18379 1.311628,0.55174 0.296686,0.34749 0.445205,0.80257 0.445205,1.36631" />
      <path
         inkscape:connector-curvature="0"
         id="path96"
         style="fill:#000000;fill-opacity:1;fill-rule:nonzero;stroke:none;stroke-width:0.35277778"
         d="m -73.384984,269.39469 c 0,-0.35736 -0.230011,-0.53693 -0.688269,-0.53693 -0.112537,0 -0.222603,0.0113 -0.330906,0.0328 v 1.12748 c 0.09772,0.0138 0.202494,0.0212 0.314678,0.0212 0.209903,0 0.379941,-0.055 0.509411,-0.16721 0.129822,-0.11219 0.195086,-0.27094 0.195086,-0.47731 m 0.704497,0.0215 c 0,0.37994 -0.138641,0.67804 -0.417689,0.89464 -0.256116,0.20215 -0.581377,0.30304 -0.975077,0.30304 -0.09419,0 -0.204259,-0.008 -0.330906,-0.0268 v 1.45803 h -0.677333 v -3.66466 c 0.299861,-0.0677 0.639233,-0.1023 1.018822,-0.1023 0.394053,0 0.714022,0.0889 0.959203,0.26493 0.282222,0.20709 0.42298,0.49742 0.42298,0.87313" />
      <path
         inkscape:connector-curvature="0"
         id="path100"
         style="fill:#000000;fill-opacity:1;fill-rule:nonzero;stroke:none;stroke-width:0.35277778"
         d="m -69.840308,272.04518 h -2.211211 v -3.70734 h 2.162175 v 0.58526 h -1.484842 v 0.91087 h 1.241425 v 0.56339 h -1.241425 v 1.06256 h 1.533878 z" />
      <path
         inkscape:connector-curvature="0"
         id="path104"
         style="fill:#000000;fill-opacity:1;fill-rule:nonzero;stroke:none;stroke-width:0.35277778"
         d="m -67.526086,269.39469 c 0,-0.35736 -0.238478,-0.53693 -0.715786,-0.53693 -0.10407,0 -0.210961,0.0113 -0.31997,0.0328 v 1.11654 c 0.09807,0.0148 0.198967,0.0222 0.303742,0.0222 0.213783,0 0.385233,-0.0526 0.515761,-0.15734 0.143581,-0.11642 0.216253,-0.27482 0.216253,-0.47731 m 1.062567,2.65042 h -0.80257 l -0.75318,-1.24143 c -0.06879,-0.11183 -0.129823,-0.19226 -0.18415,-0.24341 h -0.05468 c -0.02469,0.003 -0.0448,0.005 -0.05891,0.005 0.01058,0 -0.07055,-0.005 -0.244828,-0.0169 v 1.49648 h -0.676627 v -3.65301 c 0.349955,-0.0762 0.672041,-0.11395 0.964141,-0.11395 0.971903,0 1.458736,0.37712 1.458736,1.13277 0,0.242 -0.07796,0.45896 -0.233186,0.65052 -0.155222,0.19156 -0.343605,0.30727 -0.564091,0.34749 v 0.0102 c 0.07937,0.003 0.180975,0.10124 0.304094,0.2921 z" />
      <path
         inkscape:connector-curvature="0"
         id="path108"
         style="fill:#000000;fill-opacity:1;fill-rule:nonzero;stroke:none;stroke-width:0.35277778"
         d="m -64.084069,270.5166 -0.487186,-1.25166 -0.483306,1.25166 z m 1.350433,1.52894 h -0.75953 l -0.3683,-0.94368 h -1.431572 l -0.367948,0.93839 -0.726369,0.005 1.533525,-3.70805 h 0.64523 z" />
      <path
         inkscape:connector-curvature="0"
         id="path112"
         style="fill:#000000;fill-opacity:1;fill-rule:nonzero;stroke:none;stroke-width:0.35277778"
         d="m -59.916035,268.92289 h -1.160286 v 3.12208 h -0.677333 v -3.12208 h -1.089378 v -0.58526 h 2.926997 z" />
      <path
         d="m -58.821189,272.0449 h -0.677333 v -3.70734 h 0.677333 z"
         style="fill:#000000;fill-opacity:1;fill-rule:nonzero;stroke:none;stroke-width:0.35277778"
         id="path114"
         inkscape:connector-curvature="0" />
      <path
         inkscape:connector-curvature="0"
         id="path118"
         style="fill:#000000;fill-opacity:1;fill-rule:nonzero;stroke:none;stroke-width:0.35277778"
         d="m -55.39039,270.1967 c 0,-0.37183 -0.07796,-0.67733 -0.233186,-0.91616 -0.180975,-0.27799 -0.446264,-0.41734 -0.797278,-0.41734 -0.349603,0 -0.615597,0.13935 -0.796572,0.41734 -0.151695,0.23883 -0.227189,0.54433 -0.227189,0.91616 0,0.36512 0.07726,0.66675 0.232833,0.90523 0.18415,0.27834 0.447323,0.41769 0.790928,0.41769 0.347486,0 0.611011,-0.13935 0.791633,-0.41769 0.159456,-0.23848 0.238831,-0.54011 0.238831,-0.90523 m 0.726722,0 c 0,0.55668 -0.152047,1.00894 -0.455789,1.35502 -0.318205,0.3683 -0.752122,0.55315 -1.301397,0.55315 -0.549275,0 -0.980722,-0.18203 -1.295047,-0.54715 -0.303389,-0.35066 -0.455083,-0.80434 -0.455083,-1.36102 0,-0.56374 0.147814,-1.01882 0.443441,-1.36631 0.318559,-0.36795 0.754945,-0.55174 1.306689,-0.55174 0.557389,0 0.994128,0.18379 1.311981,0.55174 0.296333,0.34749 0.445205,0.80257 0.445205,1.36631" />
      <path
         inkscape:connector-curvature="0"
         id="path122"
         style="fill:#000000;fill-opacity:1;fill-rule:nonzero;stroke:none;stroke-width:0.35277778"
         d="m -50.734499,272.00211 c -0.137231,0.054 -0.270933,0.0808 -0.401108,0.0808 -0.328789,0 -0.5842,-0.15734 -0.76447,-0.47131 l -1.376539,-2.37914 c -0.02928,-0.0511 -0.05292,-0.0963 -0.0702,-0.13582 h -0.01164 v 2.94852 h -0.676628 v -3.70734 h 1.012825 l 1.517297,2.74814 c 0.01905,0.0356 0.04586,0.0903 0.0822,0.16263 h 0.01023 v -2.91077 h 0.678039 z" />
    </g>
  </g>
</svg>
