<svg xmlns="http://www.w3.org/2000/svg" height="800" width="1200" viewBox="-7.934265 -4.318 68.76363 25.908"><path d="M18.3512 17.272h34.544V0h-34.544z" fill="#fab20b"/><path d="M41.5778 7.6555c-.0003 0-.0003.0003-.0003.0003l.0008-.0006zM35.3405 5.144v-.5133h-1.825v3.2607h1.825v-.5048h-1.0799V6.3861h1.0626v-.4187h-1.0626V5.144zm-7.7752-.5137V6.541c0 .1972.0247.4011.0698.5733.1845.6988.8773.8029 1.2738.8029.2318 0 .5648-.0437.834-.2523.2-.1492.3295-.345.3958-.5976.059-.2226.065-.4596.0702-.7112l.001-.0515V4.6304h-.5507l-.0002 1.5451.0002.1217c0 .18-.004.3694-.0282.533-.0335.21-.061.3472-.2007.5017-.1129.1214-.2504.1803-.4198.1803-.1693 0-.3065-.0593-.4212-.1817-.1365-.1524-.1658-.291-.1986-.5006-.0243-.1608-.0282-.3901-.0282-.5926l.001-.1433V4.6304zm2.1776 3.0346s-.0002.0004-.0007.0004l.001-.0007c-.0003 0-.0003.0003-.0003.0003m18.5521-.9723l-1.7564-2.0624h-.4897v3.2615h.4625V5.7912l1.8172 2.1005h.4282V4.6302h-.4617zm-10.2333 0l-1.7565-2.0624h-.4893v3.2615h.4625V5.7912l1.8168 2.1005h.4287V4.6302h-.4622zM22.49 4.6303v3.2611h1.821v-.503l-1.0453-.0004V4.6303zM41.8292 7.891h.7437V4.6326h-.7437z" fill="#0b3b6a"/><path d="M32.1506 6.328l-.007-.0108s.003-.0007.007-.002c.4495-.114.7285-.4561.7285-.8946 0-.236-.0882-.436-.2554-.5772-.1647-.1393-.3958-.213-.6685-.213h-1.271v3.2614h.7577V6.3893h.0243c.1157.2053.809 1.4326.8333 1.4753l.0155.0272h.8343zm-.4914-.2567h-.2173v-1.101h.2173c.3535 0 .5486.1859.5486.5228 0 .1965-.06.3482-.1785.4501-.0956.083-.2272.128-.37.128" fill="#1e3b5f"/><path d="M38.955 4.6303v.5123h.865l-.0002 2.7488h.7514V5.144l.8315-.0004v-.5132zm-12.6855.0004h-.399l-1.301 3.261h.4724l.3556-.9492h.985l.3347.9493h.8234zm-.727 1.9431l.3704-.9599.3383.96zM44.5179 4.631h-.399l-1.3014 3.2611h.4724l.3563-.9486h.985l.334.9486h.8234zm-.7274 1.9431l.371-.9599.3384.96zm-5.8907 4.9223l-1.7564-2.0623h-.4897v3.261h.4625v-2.1l1.8171 2.1h.4283v-3.261h-.4618zm-6.0926-.5688a1.0826 1.0826 0 00.231-.147c.186-.156.284-.3624.284-.5966 0-.279-.1107-.4847-.3287-.6107-.1602-.0924-.3754-.139-.641-.139h-1.3258v3.2608h1.2005c.3062 0 .5885-.0808.7962-.228.2442-.1724.373-.4254.373-.7312 0-.4477-.2812-.7017-.5892-.8083m-1.0019-1.1288h.2582c.1884 0 .4689.1435.4727.4512.002.1859-.0617.3443-.1813.4448-.1295.1104-.3517.1083-.5306.1062h-.019zm.2473 2.5308h-.2473V11.165h.1517c.4096 0 .6258.2092.6258.604 0 .3636-.273.5605-.5302.5605m3.0694-2.8953h-.399l-1.3015 3.261h.4724l.3563-.9489h.985l.334.949h.8234zm-.7278 1.9431l.3714-.96.3383.96zm5.3404 1.3173h.6943v-1.5303l1.0502 1.5321.7408-.001-1.214-1.8274c.1193-.1563 1.14-1.4344 1.14-1.4344l-.5324.001s-.7723.978-1.1846 1.4683V9.4342h-.6943zM17.272 17.272H0V0h17.272z" fill="#0b3b6a"/><path d="M2.5335 5.9557L4.666 8.0939h2.2942V5.7948L4.8297 3.6573zm-.956 2.1618v3.2568H4.598l1.62-1.6284-1.62-1.6284zM7 9.1779v5.3524h3.258V9.1779L8.6291 7.5576zm5.6596-1.0604L11.04 9.7459l1.6196 1.6284h3.0212V8.1175zm2.0648-2.1618l-2.2962-2.2984-2.1308 2.1375v2.299h2.2945zM7 5.782l1.6292 1.6203 1.6287-1.6203V2.7479H7z" fill="#f9ae26"/><path d="M18.3512 17.272h34.544V0h-34.544z" fill="#fab20b"/><path d="M41.5778 7.6555c-.0003 0-.0003.0003-.0003.0003l.0008-.0006zM35.3405 5.144v-.5133h-1.825v3.2607h1.825v-.5048h-1.0799V6.3861h1.0626v-.4187h-1.0626V5.144zm-7.7752-.5137V6.541c0 .1972.0247.4011.0698.5733.1845.6988.8773.8029 1.2738.8029.2318 0 .5648-.0437.834-.2523.2-.1492.3295-.345.3958-.5976.059-.2226.065-.4596.0702-.7112l.001-.0515V4.6304h-.5507l-.0002 1.5451.0002.1217c0 .18-.004.3694-.0282.533-.0335.21-.061.3472-.2007.5017-.1129.1214-.2504.1803-.4198.1803-.1693 0-.3065-.0593-.4212-.1817-.1365-.1524-.1658-.291-.1986-.5006-.0243-.1608-.0282-.3901-.0282-.5926l.001-.1433V4.6304zm2.1776 3.0346s-.0002.0004-.0007.0004l.001-.0007c-.0003 0-.0003.0003-.0003.0003m18.5521-.9723l-1.7564-2.0624h-.4897v3.2615h.4625V5.7912l1.8172 2.1005h.4282V4.6302h-.4617zm-10.2333 0l-1.7565-2.0624h-.4893v3.2615h.4625V5.7912l1.8168 2.1005h.4287V4.6302h-.4622zM22.49 4.6303v3.2611h1.821v-.503l-1.0453-.0004V4.6303zM41.8292 7.891h.7437V4.6326h-.7437z" fill="#0b3b6a"/><path d="M32.1506 6.328l-.007-.0108s.003-.0007.007-.002c.4495-.114.7285-.4561.7285-.8946 0-.236-.0882-.436-.2554-.5772-.1647-.1393-.3958-.213-.6685-.213h-1.271v3.2614h.7577V6.3893h.0243c.1157.2053.809 1.4326.8333 1.4753l.0155.0272h.8343zm-.4914-.2567h-.2173v-1.101h.2173c.3535 0 .5486.1859.5486.5228 0 .1965-.06.3482-.1785.4501-.0956.083-.2272.128-.37.128" fill="#1e3b5f"/><path d="M38.955 4.6303v.5123h.865l-.0002 2.7488h.7514V5.144l.8315-.0004v-.5132zm-12.6855.0004h-.399l-1.301 3.261h.4724l.3556-.9492h.985l.3347.9493h.8234zm-.727 1.9431l.3704-.9599.3383.96zM44.5179 4.631h-.399l-1.3014 3.2611h.4724l.3563-.9486h.985l.334.9486h.8234zm-.7274 1.9431l.371-.9599.3384.96zm-5.8907 4.9223l-1.7564-2.0623h-.4897v3.261h.4625v-2.1l1.8171 2.1h.4283v-3.261h-.4618zm-6.0926-.5688a1.0826 1.0826 0 00.231-.147c.186-.156.284-.3624.284-.5966 0-.279-.1107-.4847-.3287-.6107-.1602-.0924-.3754-.139-.641-.139h-1.3258v3.2608h1.2005c.3062 0 .5885-.0808.7962-.228.2442-.1724.373-.4254.373-.7312 0-.4477-.2812-.7017-.5892-.8083m-1.0019-1.1288h.2582c.1884 0 .4689.1435.4727.4512.002.1859-.0617.3443-.1813.4448-.1295.1104-.3517.1083-.5306.1062h-.019zm.2473 2.5308h-.2473V11.165h.1517c.4096 0 .6258.2092.6258.604 0 .3636-.273.5605-.5302.5605m3.0694-2.8953h-.399l-1.3015 3.261h.4724l.3563-.9489h.985l.334.949h.8234zm-.7278 1.9431l.3714-.96.3383.96zm5.3404 1.3173h.6943v-1.5303l1.0502 1.5321.7408-.001-1.214-1.8274c.1193-.1563 1.14-1.4344 1.14-1.4344l-.5324.001s-.7723.978-1.1846 1.4683V9.4342h-.6943zM17.272 17.272H0V0h17.272z" fill="#0b3b6a"/><path d="M2.5335 5.9557L4.666 8.0939h2.2942V5.7948L4.8297 3.6573zm-.956 2.1618v3.2568H4.598l1.62-1.6284-1.62-1.6284zM7 9.1779v5.3524h3.258V9.1779L8.6291 7.5576zm5.6596-1.0604L11.04 9.7459l1.6196 1.6284h3.0212V8.1175zm2.0648-2.1618l-2.2962-2.2984-2.1308 2.1375v2.299h2.2945zM7 5.782l1.6292 1.6203 1.6287-1.6203V2.7479H7z" fill="#f9ae26"/></svg>